<svg xmlns="http://www.w3.org/2000/svg" viewBox="0 0 24 24"><defs><style>.cls-1{fill:#a09f94;}</style></defs><g id="Layer_2" data-name="Layer 2"><g id="Layer_1-2" data-name="Layer 1"><g id="mxW7Rm"><path class="cls-1" d="M12.33,24h-.67l-.23,0c-.59-.07-1.19-.1-1.78-.22A11.74,11.74,0,0,1,3,19.93a11.89,11.89,0,0,1-3-7.71A11.33,11.33,0,0,1,.26,9.56,12,12,0,0,1,11.13,0a10.8,10.8,0,0,1,3.54.28A11.81,11.81,0,0,1,23,7.26a11.14,11.14,0,0,1,.93,3.68c0,.24.05.48.07.72v.67c0,.07,0,.15,0,.23-.08.62-.11,1.25-.24,1.85a11.79,11.79,0,0,1-6.36,8.3A11.23,11.23,0,0,1,13,23.93ZM2.69,12A9.3,9.3,0,1,0,12,2.69,9.33,9.33,0,0,0,2.69,12Z"/><path class="cls-1" d="M18.4,7.69l-7.32,9.78L6.17,13.76l1.2-1.6,3.32,2.48,6.1-8.15Z"/></g></g></g></svg>