<svg xmlns="http://www.w3.org/2000/svg" viewBox="0 0 864.15 62.34"><defs><style>.cls-1{fill:#9f9e94;}.cls-2{fill:#9f9e93;}.cls-3{fill:#a09f94;}</style></defs><g id="Layer_2" data-name="Layer 2"><g id="Layer_1-2" data-name="Layer 1"><path class="cls-1" d="M93,31.21c0-9,0-18,0-27.06,0-1.8.28-2.64,2.42-2.6,5.57.1,5.58,0,5.58,5.63,0,5.79,0,11.59,0,17.38,0,1.5.44,2,2,2q12.74-.09,25.48,0c1.68,0,2.11-.53,2.09-2.12-.07-6.87,0-13.74-.06-20.6,0-1.71.45-2.27,2.23-2.27,5.74,0,5.74-.07,5.74,5.55V57.5c0,3.6,0,3.6-3.57,3.61-4.37,0-4.37,0-4.37-4.32,0-6.87,0-13.74,0-20.61,0-1.62-.28-2.32-2.15-2.3q-12.61.15-25.23,0c-1.81,0-2.21.62-2.19,2.28.08,7.45,0,14.9.08,22.34,0,2-.61,2.67-2.55,2.63-6.64-.13-5.38.68-5.44-5.34C92.94,47.59,93,39.4,93,31.21Z"/><path class="cls-2" d="M183.87,31.05c0-9,0-18,0-27.06,0-1.79.4-2.45,2.35-2.43q16.48.13,33,0c1.7,0,2.33.41,2.27,2.19-.2,6.12.87,5.15-5.06,5.2-7.41,0-14.82.06-22.23,0-1.85,0-2.68.33-2.6,2.42.17,4.3.16,8.61,0,12.91-.07,2,.67,2.31,2.45,2.29,7.66-.09,15.32,0,23-.07,1.86,0,2.65.35,2.62,2.44-.09,5,0,5-5,5-7,0-14,0-21,0-1.68,0-2.12.52-2.09,2.12.09,5.12.1,10.26,0,15.39,0,1.87.61,2.4,2.45,2.38,8.66-.07,17.32,0,26-.08,2.08,0,2.7.55,2.64,2.63-.12,4.78,0,4.79-5,4.79-10.32,0-20.65-.06-31,0-2.15,0-2.9-.56-2.87-2.79C183.94,49.26,183.87,40.15,183.87,31.05Z"/><path class="cls-2" d="M31.43,62.33C13.35,62.41.52,49.83,0,32.65-.33,20.73,3.85,11.11,14.07,4.57c10.61-6.79,26-5.87,34.5,1.78,4.24,3.81,4.15,3.7-.1,7.35-1.89,1.63-2.7,1.75-4.45-.36-5.86-7.06-18.25-7.9-26.38-2C10,16.81,7.35,24.5,8,33.61s4.87,15.73,13.2,19.44c9.08,4.05,19.58,2,25.23-5.94.89-1.26,1.51-1.25,2.5-.29A15.67,15.67,0,0,0,50.47,48c3.62,2.74,3.65,2.77.46,6.15A25.47,25.47,0,0,1,31.43,62.33Z"/><path class="cls-2" d="M502.73,31.19c0-9,.06-18-.05-27,0-2.1.63-2.61,2.67-2.59q16,.13,31.95,0c1.83,0,2.49.44,2.41,2.35-.22,5.43.93,5.05-5.05,5.06-7.23,0-14.47,0-21.71,0-1.7,0-2.34.43-2.29,2.21.11,4.29.12,8.6,0,12.89-.06,1.92.45,2.56,2.48,2.52,7.23-.12,14.47,0,21.71-.09,2.13,0,2.94.49,2.87,2.75-.13,4.7,0,4.7-4.74,4.7-6.74,0-13.48,0-20.21,0-1.65,0-2.12.5-2.1,2.11.08,7.44-.05,14.88.08,22.32,0,2.24-.75,2.87-2.86,2.81-6.18-.15-5.09.63-5.14-5.14C502.68,47.72,502.73,39.46,502.73,31.19Z"/><path class="cls-2" d="M414.64,1.61c3.09,0,5.72,0,8.36,0,1.19,0,1.46.9,1.94,1.64q7,10.88,13.93,21.75c.49.75,1,1.48,1.67,2.43,4.63-7,9.46-13.65,13.5-20.74,2.35-4.11,5.1-5.87,9.66-5.09a20.22,20.22,0,0,0,2.75,0c-2.55,4-4.88,7.64-7.24,11.28q-6.87,10.64-13.8,21.24a6.34,6.34,0,0,0-1.07,3.71c.05,6.78-.06,13.56.07,20.33,0,2.21-.48,3.07-2.87,3-4.82-.15-4.82,0-4.82-4.9,0-6-.05-12.07,0-18.11a7.4,7.4,0,0,0-1.31-4.38c-6.58-10-13.09-20.12-19.62-30.19C415.51,3.1,415.23,2.6,414.64,1.61Z"/><path class="cls-2" d="M680.05,31.29c0-9.1.05-18.2,0-27.31,0-1.79.41-2.44,2.34-2.42,5.41.05,5.41,0,5.41,5.3V50.55c0,3.19,0,3.19,3.31,3.19,7,0,14,.06,21,0,1.88,0,2.61.37,2.56,2.42-.12,5,0,5-5,5-8.91,0-17.82-.07-26.72,0-2.18,0-2.87-.6-2.84-2.81C680.12,49.32,680.05,40.31,680.05,31.29Z"/><path class="cls-3" d="M760.66,31.44c0,9-.06,18,0,27.05,0,2.09-.66,2.69-2.71,2.65-6.39-.12-5.25.32-5.26-5.08-.05-17.29,0-34.57-.06-51.86,0-2,.51-2.69,2.62-2.65,5.36.12,5.37,0,5.37,5.33Z"/><path class="cls-2" d="M833.85.12C815.61,0,802.66,12.77,802.6,30.86c-.07,18.41,12.6,31.49,30.48,31.48,18.22,0,31-12.62,31.07-30.62C864.21,13.14,851.82.22,833.85.12Zm17.57,46.63c-5.78,7.48-13.71,9.56-22.67,7.91-8.66-1.6-14.35-6.86-17.16-15.15a23.66,23.66,0,0,1-1.09-8.32c.06-8.43,2.88-15.51,10.27-20.27,11.44-7.38,32.91-3.46,35.37,16.4C857,34.44,855.84,41,851.42,46.75Z"/><path class="cls-2" d="M607.54.12c-18.25,0-31.17,12.62-31.13,31.15,0,18,12.9,31.32,30.47,31.07,18.14,0,31.22-12.77,31.25-30.55C638.16,13.2,625.57.17,607.54.12Zm12.53,51.44c-7.42,4.81-15.45,4.86-23.27,1.18-8.1-3.82-12-10.78-12.45-19.48-.51-9.21,2.09-17.34,10.42-22.41,8.05-4.89,16.57-4.62,24.66-.12s10.77,12,10.86,20C630.11,39.75,627.31,46.88,620.07,51.56Z"/><path class="cls-2" d="M384.39,59c-4.94-8-9.74-16-14.65-24-.82-1.34-.82-1.8.92-2.25,4.77-1.23,8.95-3.6,10.62-8.5,3.35-9.86,0-20.16-13-22.19C361.16,1,354,1.91,346.85,1.56c-2.13-.11-2.45.75-2.43,2.57.07,9,0,18,0,27.05,0,8.19-.06,16.38,0,24.57.06,5.83-1.4,5.29,5.69,5.38,1.75,0,2.3-.59,2.28-2.31-.08-6.53,0-13.07,0-19.6,0-5.31,0-5.21,5.29-5.35a4,4,0,0,1,4.13,2.33c3.74,6.54,7.65,13,11.5,19.46,3.29,5.54,3.29,5.49,9.83,5.48C385.07,61.13,385.53,60.87,384.39,59ZM354,26.53c-1.18,0-1.62-.39-1.59-1.57.06-2.39,0-4.78,0-7.17s0-4.63,0-6.93c0-1.33.31-1.95,1.79-1.91,3.82.1,7.64,0,11.45.15,5.84.3,9.25,4.17,8.82,9.74-.31,4.1-4,7.32-9,7.59C361.62,26.63,357.8,26.47,354,26.53Z"/><path class="cls-2" d="M304,59c-4.84-7.81-9.54-15.7-14.36-23.53-.9-1.46-1.4-2.25,1-2.71A14.33,14.33,0,0,0,297,29.62c5.29-4.38,5.85-10.18,4.54-16.26-1.49-6.9-6.68-10-13.16-11.15-7.17-1.27-14.45-.33-21.67-.64-2-.09-2.72.45-2.69,2.58.12,9.09.05,18.19.05,27.29,0,8.11-.05,16.21,0,24.32.05,5.81-1.23,5.25,5.46,5.38,2,0,2.53-.7,2.5-2.6-.09-6.53,0-13.07,0-19.6,0-5,0-4.89,5.07-5.08a4.33,4.33,0,0,1,4.49,2.58C285.29,43,289.61,49.21,293,55.93c2.24,4.45,5.16,5.81,9.81,5.25C304.78,60.94,305,60.72,304,59ZM273.68,26.54c-1.31,0-1.76-.44-1.71-1.72.07-2.4,0-4.8,0-7.19s.05-4.63,0-6.94c0-1.29.43-1.76,1.72-1.74,3.91.09,7.83-.08,11.72.17,6.19.38,9.77,5.08,8.52,10.84-.76,3.52-4.46,6.28-9,6.48C281.17,26.6,277.42,26.46,273.68,26.54Z"/></g></g></svg>