<svg xmlns="http://www.w3.org/2000/svg" viewBox="0 0 72 72"><defs><style>.cls-1{fill:#ddbba5;}.cls-2{fill:#fff;}</style></defs><g id="Layer_2" data-name="Layer 2"><g id="Layer_1-2" data-name="Layer 1"><circle class="cls-1" cx="36" cy="36" r="36"/><path class="cls-2" d="M53.89,31.19a.9.9,0,0,1,0,1.79H51.21a.9.9,0,0,1,0-1.79Z"/><path class="cls-2" d="M48,18.8a.9.9,0,0,1,1.27,1.27L47.39,22a.9.9,0,0,1-1.27-1.27Z"/><path class="cls-2" d="M49.29,44.1A.9.9,0,0,1,48,45.37l-1.9-1.9c-.82-.81.45-2.08,1.27-1.27Z"/><path class="cls-2" d="M36.89,14.19v2.68a.89.89,0,0,1-1.78,0V14.19A.89.89,0,0,1,36.89,14.19Z"/><path class="cls-2" d="M25.88,20.69A.9.9,0,0,1,24.61,22l-1.9-1.89A.9.9,0,0,1,24,18.8Z"/><path class="cls-2" d="M24.61,42.2c.82-.81,2.09.46,1.27,1.27L24,45.37a.9.9,0,0,1-1.27-1.27Z"/><path class="cls-2" d="M20.79,31.19a.9.9,0,0,1,0,1.79H18.11a.9.9,0,0,1,0-1.79Z"/><path class="cls-2" d="M37.06,21.4a10.83,10.83,0,0,1,8.83,14.84c-1.56,3.7-5.67,6-6.25,10.16h-1V43.5L41.21,39a.9.9,0,0,0,0-.9l-4.42-7.4a.91.91,0,0,0-1.54,0l-4.42,7.4a.9.9,0,0,0,0,.9l2.53,4.48v2.9h-1c-.58-4.17-4.69-6.46-6.25-10.16A10.82,10.82,0,0,1,37.06,21.4Z"/><path class="cls-2" d="M36.89,34.42l2.5,4.18-2.12,3.77H34.73L32.61,38.6l2.5-4.18v4.16a.89.89,0,0,0,1.78,0Z"/><rect class="cls-2" x="35.11" y="44.16" width="1.79" height="2.24"/><path class="cls-2" d="M40.47,48.19a.9.9,0,0,1,0,1.79H31.53a.9.9,0,0,1,0-1.79Z"/><path class="cls-2" d="M40.47,51.76a.9.9,0,0,1,0,1.79H31.53a.9.9,0,0,1,0-1.79Z"/><path class="cls-2" d="M32.42,55.34h7.16a.9.9,0,0,1-.9.9H33.32A.9.9,0,0,1,32.42,55.34Z"/></g></g></svg>