<svg xmlns="http://www.w3.org/2000/svg" viewBox="0 0 72 72"><defs><style>.cls-1{fill:#c9c9c9;}.cls-2{fill:#fff;}</style></defs><g id="Layer_2" data-name="Layer 2"><g id="Layer_1-2" data-name="Layer 1"><circle class="cls-1" cx="36" cy="36" r="36"/><polygon class="cls-2" points="42.59 39.78 36 41.5 29.41 39.78 36 38.06 42.59 39.78"/><polygon class="cls-2" points="54.53 24.47 54.53 48.16 36.81 52.79 36.81 42.95 46.58 40.4 46.58 26.55 54.53 24.47"/><polygon class="cls-2" points="44.97 26.55 44.97 38.74 36.81 36.6 36.81 24.43 44.97 26.55"/><polygon class="cls-2" points="35.19 42.95 35.19 52.79 17.47 48.16 17.47 24.47 25.42 26.55 25.42 40.4 35.19 42.95"/><polygon class="cls-2" points="35.19 24.43 35.19 36.6 27.03 38.74 27.03 26.55 35.19 24.43"/><polygon class="cls-2" points="52.14 23.43 45.77 25.1 36 22.55 26.23 25.1 19.86 23.43 36 19.21 52.14 23.43"/></g></g></svg>