<svg xmlns="http://www.w3.org/2000/svg" viewBox="0 0 72 72"><defs><style>.cls-1{fill:#c7c7ba;}.cls-2{fill:#fff;}</style></defs><g id="Layer_2" data-name="Layer 2"><g id="Layer_1-2" data-name="Layer 1"><circle class="cls-1" cx="36" cy="36" r="36"/><path class="cls-2" d="M48.51,52.62A.88.88,0,0,1,48,54.29L41.1,52.08H30.9L24,54.29a.88.88,0,0,1-.53-1.67l7.27-2.34v-1.7H41.24v1.7Z"/><rect class="cls-2" x="15.9" y="43.33" width="40.21" height="3.5"/><path class="cls-2" d="M32.5,25.85V41.59H27.26V39.84h2.62a.88.88,0,0,0,0-1.75H27.26V36.34h.87a.88.88,0,0,0,0-1.75h-.87V32.85h2.62a.88.88,0,0,0,0-1.75H27.26V29.35h.87a.88.88,0,0,0,0-1.75h-.87V25.85Z"/><polygon class="cls-2" points="41.24 32.47 41.24 41.59 39.5 41.59 39.5 31.62 41.24 32.47"/><polygon class="cls-2" points="42.12 26.56 44.33 29.87 42.12 30.95 39.91 29.87 42.12 26.56"/><polygon class="cls-2" points="44.74 31.62 44.74 41.59 42.99 41.59 42.99 32.47 44.74 31.62"/><path class="cls-2" d="M56.1,18.86V41.59H46.49V30L42.84,24.5a.87.87,0,0,0-1.45,0L37.75,30V41.59h-3.5V25a.88.88,0,0,0-.87-.88h-7a.88.88,0,0,0-.87.88V41.59H15.9V18.86Z"/></g></g></svg>