<svg xmlns="http://www.w3.org/2000/svg" viewBox="0 0 72 72"><defs><style>.cls-1{fill:#c1abad;}.cls-2{fill:#fff;}</style></defs><g id="Layer_2" data-name="Layer 2"><g id="Layer_1-2" data-name="Layer 1"><circle class="cls-1" cx="36" cy="36" r="36"/><path class="cls-2" d="M48.74,43.48v7.15H16.46V43.49l8.67-4.78,12.65,7.11a.85.85,0,0,0,.83-1.48l-3.9-2.19,5.89-3.24Z"/><path class="cls-2" d="M48.74,25.14V41.53L40.6,37,33,41.17l-7.83-4.39-8.68,4.77V25.14Zm-13.59,5.1c0-3.29-5.1-3.29-5.1,0S35.15,33.53,35.15,30.24Z"/><polygon class="cls-2" points="55.54 18.35 55.54 43.84 50.44 43.84 50.44 23.45 23.26 23.45 23.26 18.35 55.54 18.35"/></g></g></svg>