<svg xmlns="http://www.w3.org/2000/svg" viewBox="0 0 72 72"><defs><style>.cls-1{fill:#d4bab0;}.cls-2{fill:#fff;}</style></defs><g id="Layer_2" data-name="Layer 2"><g id="Layer_1-2" data-name="Layer 1"><circle class="cls-1" cx="36" cy="36" r="36"/><path class="cls-2" d="M42.68,46.64l4.26,4.26a18,18,0,0,1-7.32,3.73l-.95-5.94A12.1,12.1,0,0,0,42.68,46.64Z"/><path class="cls-2" d="M35.72,49.15l.94,6a18.09,18.09,0,0,1-8.13-1.28l2.75-5.37A12,12,0,0,0,35.72,49.15Z"/><path class="cls-2" d="M28.6,47.09l-2.73,5.36a17.92,17.92,0,0,1-5.81-5.81l5.36-2.73A12,12,0,0,0,28.6,47.09Z"/><path class="cls-2" d="M21.61,25.57l4.26,4.26a12.1,12.1,0,0,0-2.05,4l-5.94-1A18,18,0,0,1,21.61,25.57Z"/><path class="cls-2" d="M24.06,41.23,18.69,44a18.09,18.09,0,0,1-1.28-8.13l5.95.94A12,12,0,0,0,24.06,41.23Z"/><path class="cls-2" d="M52.43,20.08a3,3,0,0,1,0,4.24l-1.06,1.05-4.23-4.23,1-1.06A3,3,0,0,1,52.43,20.08Z"/><path class="cls-2" d="M50.31,26.44a1.5,1.5,0,0,1-2.12,2.12L44,24.32a1.5,1.5,0,0,1,2.12-2.12Z"/><path class="cls-2" d="M47.14,29.61,37,39.77a3,3,0,0,1-2.63.84l-.72-.13-2,2A1.12,1.12,0,0,1,30,40.88l2-2-.13-.72a3,3,0,0,1,.84-2.63L42.9,25.37Z"/></g></g></svg>